<svg width="1973" height="403" viewBox="0 0 1973 403" fill="none" xmlns="http://www.w3.org/2000/svg">
<path d="M4.69724e-06 147.758H107.46V402.977H4.69724e-06V147.758Z" fill="white"/>
<path d="M147.758 107.46H255.218V255.218H147.758V107.46Z" fill="white"/>
<path d="M255.218 295.516V402.977L107.46 402.977V295.516H255.218Z" fill="white"/>
<path d="M295.516 1.1156e-05H402.977V402.977H295.516V1.1156e-05Z" fill="white"/>
<path d="M255.218 1.1156e-05V107.46L0 107.46L4.69724e-06 0L255.218 1.1156e-05Z" fill="white"/>
<path d="M616.113 193.07L595.378 139.024H592.999V247.456H522.977V10.1974C522.977 3.39912 526.036 0 532.834 0H724.545C791.847 0 816.321 33.3114 816.321 88.0373V108.092C816.321 164.858 791.167 193.07 727.944 193.07H616.113ZM715.707 61.8641H597.417C594.358 61.8641 592.999 63.5636 592.999 66.6228V132.566H715.707C738.141 132.566 746.299 124.068 746.299 103.673V91.4364C746.299 68.3224 738.141 61.8641 715.707 61.8641Z" fill="white"/>
<path d="M912.718 128.147H910.339V247.456H840.317V10.1974C840.317 3.39912 843.376 0 849.834 0H1043.24C1104.77 0 1126.86 30.2522 1126.86 79.1996V96.875C1126.86 144.803 1104.77 174.375 1045.96 174.375H1038.83C1032.03 174.375 1026.93 174.375 1022.17 174.035V176.415C1027.95 181.853 1034.07 188.651 1039.51 195.45L1078.94 244.737V247.456H1000.08L912.718 128.147ZM1030.67 61.8641H915.097C912.378 61.8641 910.339 63.5636 910.339 67.6426V121.689H1030.67C1049.02 121.689 1056.5 115.57 1056.5 95.5154V87.0176C1056.5 67.9825 1049.02 61.8641 1030.67 61.8641Z" fill="white"/>
<path d="M1220.04 247.456H1150.02V0H1220.04V247.456Z" fill="white"/>
<path d="M1655.41 247.456H1589.47V61.5241C1589.47 58.125 1587.77 56.0856 1584.37 56.0856H1580.63C1577.57 56.0856 1575.53 57.7851 1574.51 60.5044L1506.87 239.638C1504.49 245.757 1500.75 247.456 1493.61 247.456H1413.06C1405.58 247.456 1402.18 245.757 1399.8 239.638L1332.5 60.5044C1331.48 57.7851 1329.44 56.0856 1326.04 56.0856H1322.64C1319.24 56.0856 1317.2 58.125 1317.2 61.5241V247.456H1251.6V10.1974C1251.6 3.39912 1254.66 0 1261.11 0H1372.95C1380.76 0 1385.18 3.39912 1387.22 9.17764L1448.07 185.932C1448.41 187.292 1449.43 187.972 1451.47 187.972H1457.58C1459.28 187.972 1459.96 187.292 1460.3 185.932L1521.49 9.17764C1523.53 3.39912 1527.61 0 1535.42 0H1645.9C1652.35 0 1655.41 3.39912 1655.41 10.1974V247.456Z" fill="white"/>
<path d="M1775.83 147.862L1759.51 104.353H1757.13V178.454C1757.13 181.513 1758.15 183.213 1761.89 183.213H1970.6V247.456H1696.97C1690.17 247.456 1687.11 244.057 1687.11 237.259V10.1974C1687.11 3.39912 1690.17 0 1696.97 0H1962.78C1969.58 0 1972.98 3.39912 1972.98 10.1974V74.4408L1908.05 98.5746H1905.33V65.6031C1905.33 62.8838 1903.97 61.8641 1901.93 61.8641H1761.55C1758.15 61.8641 1757.13 64.2435 1757.13 66.6228V97.5549H1872.7V147.862H1775.83Z" fill="white"/>
<path d="M570.206 401.882H522.977V328.551H533.946V391.265H570.206V401.882Z" fill="white"/>
<path d="M652.339 401.882H603.688V328.551H652.339V339.167H614.657V359.634H650.816V370.361H614.657V391.265H652.339V401.882Z" fill="white"/>
<path d="M695.963 401.882H684.486L710.995 328.551H726.739L753.248 401.882H741.364L734.458 382.838H702.87L695.963 401.882ZM713.839 352.849L706.729 372.221H730.598L723.488 352.849L719.121 339.277H718.308L713.839 352.849Z" fill="white"/>
<path d="M806.159 401.882H795.291V339.167H772.133V328.551H829.317V339.167H806.159V401.882Z" fill="white"/>
<path d="M873.158 401.882H862.188V328.551H873.158V359.634H907.488V328.551H918.457V401.882H907.488V370.251H873.158V401.882Z" fill="white"/>
<path d="M1007.02 401.882H958.373V328.551H1007.02V339.167H969.343V359.634H1005.5V370.361H969.343V391.265H1007.02V401.882Z" fill="white"/>
<path d="M1055.31 401.882H1044.34V328.551H1073.59C1088.63 328.551 1098.07 336.541 1098.07 350.441C1098.07 362.59 1091.16 369.923 1079.18 370.579V371.455C1084.16 373.206 1087.1 376.49 1089.64 381.524L1099.8 401.882H1087.1L1077.45 382.947C1074.3 376.599 1071.46 373.644 1063.33 373.644H1055.31V401.882ZM1055.31 339.167V363.903H1074.91C1083.75 363.903 1087.1 360.401 1087.1 351.535C1087.1 342.889 1083.75 339.167 1074.91 339.167H1055.31Z" fill="white"/>
<path d="M1194.12 401.882H1183.15V328.551H1194.12V401.882Z" fill="white"/>
<path d="M1245.07 401.882H1234.1V328.551H1245.89L1271.68 370.579L1278.9 382.291H1279.71V328.551H1290.68V401.882H1278.9L1245.78 348.58H1245.07V401.882Z" fill="white"/>
<path d="M1354.76 401.882H1330.59V328.551H1354.76C1375.78 328.551 1389.19 342.56 1389.19 365.216C1389.19 387.872 1375.78 401.882 1354.76 401.882ZM1354.76 339.167H1341.56V391.265H1354.76C1371.01 391.265 1377.51 384.042 1377.51 365.216C1377.51 346.391 1371.01 339.167 1354.76 339.167Z" fill="white"/>
<path d="M1454.82 402.977C1436.34 402.977 1425.87 391.922 1425.87 373.206V328.551H1436.74V373.206C1436.74 386.45 1441.41 391.594 1454.82 391.594C1468.13 391.594 1472.8 386.45 1472.8 373.206V328.551H1483.77V373.206C1483.77 391.922 1473.21 402.977 1454.82 402.977Z" fill="white"/>
<path d="M1550.28 402.977C1530.68 402.977 1522.15 393.235 1522.15 379.116V377.256H1532.91V378.46C1532.91 387.544 1536.47 392.141 1550.69 392.141C1560.74 392.141 1564.4 389.186 1564.4 382.4C1564.4 375.724 1562.37 373.316 1551.91 371.017L1540.33 368.5C1528.65 366.092 1522.35 359.963 1522.35 348.361C1522.35 337.526 1530.17 327.456 1547.74 327.456C1566.53 327.456 1574.05 338.839 1574.05 351.864V353.177H1563.28V351.973C1563.28 342.998 1559.63 338.292 1547.44 338.292C1537.38 338.292 1533.32 341.356 1533.32 347.814C1533.32 354.49 1536.06 356.351 1545.41 358.54L1556.99 361.167C1569.78 364.012 1575.37 370.908 1575.37 381.962C1575.37 393.454 1567.65 402.977 1550.28 402.977Z" fill="white"/>
<path d="M1637.77 401.882H1626.91V339.167H1603.75V328.551H1660.93V339.167H1637.77V401.882Z" fill="white"/>
<path d="M1704.77 401.882H1693.8V328.551H1723.05C1738.09 328.551 1747.53 336.541 1747.53 350.441C1747.53 362.59 1740.63 369.923 1728.64 370.579V371.455C1733.62 373.206 1736.56 376.49 1739.1 381.524L1749.26 401.882H1736.56L1726.91 382.947C1723.76 376.599 1720.92 373.644 1712.8 373.644H1704.77V401.882ZM1704.77 339.167V363.903H1724.37C1733.21 363.903 1736.56 360.401 1736.56 351.535C1736.56 342.889 1733.21 339.167 1724.37 339.167H1704.77Z" fill="white"/>
<path d="M1794.91 401.882H1783.94V328.551H1794.91V401.882Z" fill="white"/>
<path d="M1883.54 401.882H1834.89V328.551H1883.54V339.167H1845.86V359.634H1882.02V370.361H1845.86V391.265H1883.54V401.882Z" fill="white"/>
<path d="M1947.89 402.977C1928.29 402.977 1919.75 393.235 1919.75 379.116V377.256H1930.52V378.46C1930.52 387.544 1934.08 392.141 1948.3 392.141C1958.35 392.141 1962.01 389.186 1962.01 382.4C1962.01 375.724 1959.98 373.316 1949.51 371.017L1937.94 368.5C1926.26 366.092 1919.96 359.963 1919.96 348.361C1919.96 337.526 1927.78 327.456 1945.35 327.456C1964.14 327.456 1971.66 338.839 1971.66 351.864V353.177H1960.89V351.973C1960.89 342.998 1957.23 338.292 1945.05 338.292C1934.99 338.292 1930.93 341.356 1930.93 347.814C1930.93 354.49 1933.67 356.351 1943.01 358.54L1954.59 361.167C1967.39 364.012 1972.98 370.908 1972.98 381.962C1972.98 393.454 1965.26 402.977 1947.89 402.977Z" fill="white"/>
</svg>
