<svg width="615" height="108" viewBox="0 0 615 108" fill="none" xmlns="http://www.w3.org/2000/svg">
<path d="M171.896 94C156.138 94 147.5 87.2941 147.5 73.7647V73.5294H155.671V74.9412C155.671 82.9412 158.939 86.8235 172.013 86.8235C182.752 86.8235 185.554 83.7647 185.554 77.8824C185.554 72 181.935 69.8824 173.18 68.2353L163.609 66.5882C154.27 64.8235 147.5 60.4706 147.5 50.2353C147.5 40.2353 155.905 33.5294 169.562 33.5294C182.752 33.5294 192.441 40.3529 192.441 53.4118V54H184.386V53.0588C184.386 46.1176 181.702 40.8235 169.328 40.8235C158.823 40.8235 155.554 44.2353 155.554 50.1176C155.554 56 158.473 58 167.111 59.6471L176.916 61.5294C186.954 63.4118 193.608 67.8824 193.608 77.5294C193.608 87.8824 185.204 94 171.896 94Z" fill="white"/>
<path d="M212.926 92.8235H204.521V14H212.926V59.0588H227.4L244.91 34.7059H254.715L234.171 62.2353L254.248 92.8235H244.443L227.4 66.7059H212.926V92.8235Z" fill="white"/>
<path d="M282.774 94C267.716 94 260.712 83.5294 260.712 69.6471V34.7059H269.116V68.4706C269.116 81.0588 274.136 86.5882 285.458 86.5882C296.081 86.5882 303.318 80.9412 303.318 67.2941V34.7059H311.606V92.8235H304.018V80H303.668C301.334 86.7059 294.797 94 282.774 94Z" fill="white"/>
<path d="M340.315 94C329.809 94 321.872 88.5882 321.872 78.8235C321.872 68.7059 329.342 64.2353 341.949 62.4706L362.26 59.6471V55.4118C362.26 45.1765 357.941 41.0588 347.085 41.0588C336.579 41.0588 331.677 45.1765 331.677 54.4706V56.2353H323.623V55.2941C323.623 43.1765 332.844 33.5294 347.786 33.5294C363.194 33.5294 370.198 43.5294 370.198 56.4706V92.8235H362.61V82.1177L362.026 82C358.641 88.7059 351.287 94 340.315 94ZM330.043 78.2353C330.043 84.2353 333.778 86.9412 342.649 86.9412C352.571 86.9412 362.26 81.7647 362.26 68V66L342.649 68.8235C333.428 70.1177 330.043 72 330.043 78.2353Z" fill="white"/>
<path d="M406.039 94C390.28 94 381.642 87.2941 381.642 73.7647V73.5294H389.814V74.9412C389.814 82.9412 393.082 86.8235 406.156 86.8235C416.895 86.8235 419.696 83.7647 419.696 77.8824C419.696 72 416.078 69.8824 407.323 68.2353L397.751 66.5882C388.413 64.8235 381.642 60.4706 381.642 50.2353C381.642 40.2353 390.047 33.5294 403.704 33.5294C416.895 33.5294 426.583 40.3529 426.583 53.4118V54H418.529V53.0588C418.529 46.1176 415.844 40.8235 403.471 40.8235C392.965 40.8235 389.697 44.2353 389.697 50.1176C389.697 56 392.615 58 401.253 59.6471L411.058 61.5294C421.097 63.4118 427.751 67.8824 427.751 77.5294C427.751 87.8824 419.346 94 406.039 94Z" fill="white"/>
<path d="M447.068 92.8235H438.664V14H447.068V45.5294H447.535C449.753 40 455.706 33.5294 467.379 33.5294C482.437 33.5294 488.857 43.6471 488.857 56.9412V92.8235H480.57V59.0588C480.57 46.4706 476.367 40.9412 464.694 40.9412C453.138 40.9412 447.068 46.3529 447.068 59.4118V92.8235Z" fill="white"/>
<path d="M526.788 94C509.045 94 499.824 81.4118 499.824 63.7647C499.824 46.1176 510.212 33.5294 526.671 33.5294C540.562 33.5294 552.002 42 552.002 59.1765C552.002 61.8824 551.768 64.4706 551.418 66.1176H507.761C508.111 78.9412 513.131 86.4706 526.905 86.4706C538.578 86.4706 543.247 81.1765 543.247 74.1177V73.4118H551.535V74.2353C551.535 85.4118 541.496 94 526.788 94ZM526.438 40.8235C513.598 40.8235 508.462 48.2353 507.761 60H544.064C544.531 46.2353 537.761 40.8235 526.438 40.8235Z" fill="white"/>
<path d="M586.368 94C570.143 94 561.038 82.1176 561.038 63.7647C561.038 45.4118 569.676 33.5294 585.434 33.5294C596.524 33.5294 603.644 39.4118 606.095 45.7647V14H614.5V92.8235H607.029V81.6471H606.562C603.994 88.9412 597.224 94 586.368 94ZM569.442 63.7647C569.442 81.5294 576.329 86.7059 587.769 86.7059C599.208 86.7059 606.095 80.7059 606.095 68.8235V58.8235C606.095 46.8235 599.208 40.8235 587.769 40.8235C576.446 40.8235 569.442 46 569.442 63.7647Z" fill="white"/>
<path d="M38.5 0H75C92.9493 0 107.5 14.5507 107.5 32.5V34.5H71C53.0507 34.5 38.5 19.9493 38.5 2V0Z" fill="white"/>
<path d="M73 38.5C92.0538 38.5 107.5 53.9462 107.5 73C107.5 92.0538 92.0538 107.5 73 107.5V38.5Z" fill="white"/>
<path d="M34.5 1.50804e-06C15.4462 2.34091e-06 6.75174e-07 15.4462 1.50804e-06 34.5C2.34091e-06 53.5538 15.4462 69 34.5 69L34.5 1.50804e-06Z" fill="white"/>
<path d="M0 73H36.5C54.4493 73 69 87.5507 69 105.5V107.5H32.5C14.5507 107.5 0 92.9493 0 75V73Z" fill="white"/>
</svg>
